<?xml version="1.0" encoding="UTF-8"?><svg xmlns="http://www.w3.org/2000/svg" viewBox="0 0 1029.16 841.89"><defs><style>.cls-1{fill:#212ea5;}.cls-1,.cls-2,.cls-3{mix-blend-mode:multiply;}.cls-2{fill:#f6dc75;}.cls-4{isolation:isolate;}</style></defs><g class="cls-4"><g id="Calque_3"><g><path class="cls-3" d="M555.85,442.75c-.8,2.42-2.29,4.34-4.45,5.75-2.17,1.41-4.49,2.11-6.98,2.11-1.36,0-2.65-.23-3.85-.68-1.2-.45-2.29-1.13-3.26-2.01-.97-.89-1.75-2.08-2.32-3.57-.57-1.49-.86-3.19-.86-5.1v-5.91c0-.26-.06-.46-.18-.6-.12-.14-.25-.2-.41-.18-.37,.04-.55,.3-.55,.78v.91c-.09,2.64-.62,5.03-1.59,7.16-.97,2.13-2.23,3.85-3.77,5.16-1.54,1.31-3.24,2.31-5.12,3-1.87,.69-3.82,1.04-5.83,1.04-1.54,0-3.04-.2-4.5-.6-1.46-.4-2.83-1.01-4.11-1.83-1.28-.82-2.4-1.81-3.36-2.97s-1.72-2.55-2.27-4.19c-.55-1.63-.83-3.4-.83-5.31s.29-3.92,.88-5.78c.58-1.86,1.5-3.63,2.76-5.31,1.26-1.68,2.79-3.14,4.6-4.38,1.81-1.24,4.02-2.24,6.62-2.97,2.61-.74,5.48-1.1,8.62-1.1s5.27,.1,6.72,.29v-12.54c0-3.01-.56-5.21-1.69-6.59-1.13-1.39-2.52-2.08-4.19-2.08-1.43,0-2.71,.43-3.83,1.3-1.13,.87-1.69,1.87-1.69,3.02,0,.65,.34,1.48,1.01,2.5,.93,1.41,1.4,2.87,1.4,4.38,0,1.95-.48,3.63-1.43,5.03-.95,1.41-2.14,2.44-3.56,3.08-1.42,.65-2.96,.97-4.63,.97s-3.19-.32-4.63-.96c-1.44-.64-2.64-1.63-3.59-2.99-.95-1.35-1.43-2.94-1.43-4.76,0-1.36,.26-2.7,.79-3.99,.53-1.3,1.4-2.55,2.6-3.75,1.2-1.2,2.68-2.25,4.43-3.15,1.75-.9,3.94-1.62,6.56-2.16,2.62-.54,5.53-.81,8.74-.81,2.64,0,5.13,.18,7.47,.54,2.34,.36,4.61,.97,6.8,1.83,2.2,.87,4.08,1.96,5.65,3.3,1.57,1.33,2.83,3.04,3.77,5.13,.94,2.09,1.41,4.45,1.41,7.1v24.42c0,4.55,1.35,7.04,4.06,7.47Zm-24.03-15v-9.06c-1.67,0-3.17,.35-4.5,1.06-1.33,.7-2.38,1.63-3.15,2.78-.77,1.15-1.35,2.39-1.75,3.74-.4,1.34-.6,2.71-.6,4.09,0,2.08,.4,3.84,1.2,5.29,.8,1.45,1.88,2.18,3.25,2.18,1.49,0,2.79-.87,3.9-2.61,1.1-1.74,1.66-4.23,1.66-7.45Z"/><path class="cls-3" d="M590.28,402.77c-1.34,0-2.54,.88-3.61,2.63-1.06,1.75-1.87,3.99-2.44,6.72-.56,2.73-.84,5.62-.84,8.67v1.04c0,6.06,.33,11.49,.97,16.27,.65,4.79,1.59,8.09,2.83,9.91h-27.57c1.23-1.82,2.18-5.12,2.83-9.91,.65-4.78,.97-10.21,.97-16.27s-.32-11.61-.97-16.52c-.65-4.9-1.59-8.27-2.83-10.08h23.77v11.24c1.67-4.35,4.04-7.78,7.11-10.28,3.07-2.5,6.79-3.75,11.14-3.75,3.05,0,5.52,.98,7.4,2.94,1.88,1.96,2.83,4.34,2.83,7.13s-1,5.4-3,7.44-4.41,3.05-7.23,3.05c-2.64,0-4.7-.64-6.19-1.92-1.48-1.28-2.53-3.2-3.13-5.78-.15-.63-.28-1.08-.37-1.36-.1-.28-.29-.55-.57-.8-.28-.25-.65-.37-1.1-.37Z"/><path class="cls-3" d="M617.26,439.25v-40.53h-3.7v-3.48c2.6,0,5.06-.29,7.37-.86,2.32-.57,4.47-1.45,6.46-2.63,1.99-1.18,3.71-2.75,5.15-4.71,1.44-1.96,2.5-4.23,3.17-6.8h1.53v15h4.22v3.48h-4.22v36.57c0,4.55,1.35,7.04,4.06,7.47-.41,2.17-1.92,4.02-4.51,5.57-2.6,1.55-5.41,2.32-8.44,2.32-1.47,0-2.85-.21-4.12-.63-1.28-.42-2.45-1.07-3.51-1.93-1.06-.87-1.9-2.06-2.52-3.57-.62-1.52-.93-3.27-.93-5.26Z"/><path class="cls-3" d="M667.34,428.69c.43,1.97,1.01,3.75,1.74,5.33,.73,1.58,1.63,2.99,2.73,4.24,1.09,1.25,2.42,2.21,4,2.89,1.57,.68,3.33,1.02,5.28,1.02,2.51,0,4.86-.69,7.03-2.06s3.87-3.18,5.08-5.41c0,1.99-.38,3.85-1.15,5.59-.77,1.73-1.82,3.23-3.17,4.48-1.34,1.26-2.91,2.33-4.69,3.21-1.79,.89-3.7,1.55-5.75,2-2.05,.44-4.15,.67-6.32,.67-3.57,0-6.9-.55-9.97-1.64-3.08-1.09-5.72-2.57-7.92-4.43-2.21-1.86-4.1-4.03-5.67-6.5-1.57-2.47-2.74-5.09-3.51-7.88-.77-2.78-1.15-5.62-1.15-8.53s.39-5.74,1.17-8.51c.78-2.77,1.96-5.38,3.54-7.83,1.58-2.45,3.47-4.59,5.67-6.43s4.83-3.29,7.89-4.35c3.06-1.06,6.36-1.59,9.89-1.59,3.07,0,5.91,.35,8.51,1.06,2.6,.7,4.81,1.65,6.62,2.84,1.82,1.19,3.37,2.59,4.64,4.19,1.28,1.6,2.22,3.29,2.83,5.07s.91,3.6,.91,5.49c0,2.29-.47,4.5-1.4,6.61-.93,2.11-2.26,4.01-3.99,5.7-1.73,1.69-4,3.04-6.79,4.06-2.79,1.02-5.9,1.53-9.32,1.53-2.92,0-5.16-.27-6.72-.81Zm-.42-2.34c.82,.22,1.62,.32,2.4,.32,1.43,0,2.68-.41,3.77-1.23,1.08-.82,1.92-1.95,2.52-3.38,.6-1.43,1.04-2.99,1.33-4.69,.29-1.7,.44-3.53,.44-5.5,0-3.98-.49-7.68-1.48-11.07s-2.05-5.1-3.2-5.1c-.91,0-1.85,1.12-2.83,3.35s-1.8,5.19-2.47,8.88c-.67,3.69-1.01,7.4-1.01,11.12,0,2.58,.17,5.01,.52,7.31Z"/><path class="cls-3" d="M723.4,374.84v47.35c0,5.8,.33,11.11,1.01,15.91,.67,4.81,1.6,8.11,2.79,9.91h-27.57c1.19-1.8,2.12-5.1,2.79-9.91,.67-4.81,1.01-10.11,1.01-15.91v-20.4c0-6.13-.33-11.7-.97-16.71-.65-5.01-1.59-8.43-2.83-10.25h23.77Z"/></g><path class="cls-1" d="M721.71,190.65l-257.31,235.02-83.84-76.58c-15.01-13.71-40.3-3.78-40.3,15.82V174.83c0-12.22,10.62-22.13,23.71-22.13h341.16c21.25,0,31.77,24.08,16.58,37.95Z"/><path class="cls-2" d="M705.13,698.64H363.97c-13.09,0-23.71-9.91-23.71-22.13v-190.08c0,19.6,25.29,29.53,40.3,15.82l83.84-76.58,257.31,235.02c15.19,13.87,4.67,37.95-16.58,37.95Z"/><path class="cls-3" d="M422.97,424.36c.79,.72,.79,1.9,0,2.62l-82.41,75.27c-15.01,13.71-40.3,3.78-40.3-15.82v-121.53c0-19.6,25.29-29.53,40.3-15.82l82.41,75.27Z"/></g></g></svg>